# xmcd
#
# Track frame offsets: 
#        182
#        11947
#        26782
#        38392
#        52080
#        65185
#        78360
#        90590
#        103357
#        112235
#        127217
#        139027
#
# Disc length: 1986 seconds
#
# Revision: 0
# Processed by: cddbd v1.4PL0 Copyright (c) Steve Scherf et al.
# Submitted via: ExactAudioCopy v0.90a11
#
DISCID=b207c00c
DTITLE=Roy Rogers - All-Time Greatest Hits Disc 2
DYEAR=1900
DGENRE=
TTITLE0=Dusty
TTITLE1=Riders In The Sky
TTITLE2=San Antonio Rose
TTITLE3=California Rose
TTITLE4=Empty Saddles
TTITLE5=Happy Trails
TTITLE6=In The Garden
TTITLE7=The Old Rugged Cross
TTITLE8=Jesus Loves Me
TTITLE9=(There'll Be) Peace In The Valey
TTITLE10=Blue Eyes Crying In The Rain
TTITLE11=Cowboy's Dream
EXTD=
EXTT0=
EXTT1=
EXTT2=
EXTT3=
EXTT4=
EXTT5=
EXTT6=
EXTT7=
EXTT8=
EXTT9=
EXTT10=
EXTT11=
PLAYORDER=
